<?xml version="1.0" standalone="no"?>
<!DOCTYPE svg PUBLIC "-//W3C//DTD SVG 20010904//EN"
 "http://www.w3.org/TR/2001/REC-SVG-20010904/DTD/svg10.dtd">
<svg version="1.0" xmlns="http://www.w3.org/2000/svg"
 width="1080.000000pt" height="1080.000000pt" viewBox="0 0 1080.000000 1080.000000"
 preserveAspectRatio="xMidYMid meet">

<g transform="translate(0.000000,1080.000000) scale(0.100000,-0.100000)"
fill="#000000" stroke="none">
<path d="M0 5400 l0 -5400 5400 0 5400 0 0 5400 0 5400 -5400 0 -5400 0 0
-5400z m4421 3040 c730 -34 1153 -206 1356 -552 132 -223 182 -444 183 -794
l0 -182 -57 -6 c-110 -13 -305 -57 -416 -92 -385 -124 -609 -348 -723 -724
l-23 -75 0 717 -1 716 -49 11 c-126 27 -253 35 -581 35 -365 1 -507 -8 -820
-50 -192 -26 -494 -84 -686 -131 l-111 -28 -72 425 c-40 234 -73 434 -74 444
-2 17 15 25 103 53 444 142 973 216 1725 241 22 1 133 -3 246 -8z m2399 -1540
c335 -19 727 -65 995 -116 216 -41 603 -148 628 -173 6 -6 -148 -881 -156
-887 -1 -1 -71 16 -156 37 -492 125 -887 178 -1377 186 -335 6 -473 -2 -629
-35 l-80 -17 -7 -425 c-3 -234 -8 -760 -10 -1170 l-3 -745 29 -63 c48 -103
126 -155 281 -187 87 -18 474 -34 872 -35 l223 0 5 23 c3 12 5 211 3 442 -3
408 -4 422 -25 475 -42 104 -142 174 -294 206 -104 22 -292 33 -541 34 l-218
0 0 153 c0 85 3 242 7 350 l6 197 181 0 c465 0 1007 -69 1311 -167 318 -102
518 -264 634 -515 82 -175 116 -380 116 -703 0 -431 -68 -713 -227 -948 -211
-311 -649 -465 -1258 -444 -538 20 -965 170 -1367 483 -45 35 -85 64 -90 64
-4 -1 -80 -94 -168 -208 l-161 -207 -313 -3 -314 -2 6 367 c4 203 12 883 17
1513 6 630 15 1215 20 1300 12 193 31 306 76 440 123 369 349 571 770 690 301
85 738 117 1214 90z m-2450 -549 l0 -349 -327 -5 c-277 -4 -342 -8 -418 -25
-204 -44 -291 -131 -315 -313 -5 -41 -10 -242 -10 -447 l0 -373 528 4 c566 4
585 5 699 59 46 22 113 80 146 128 17 24 17 6 11 -385 -3 -225 -8 -413 -11
-418 -8 -13 -191 -102 -292 -141 -118 -47 -321 -99 -471 -121 -150 -22 -453
-30 -606 -16 -614 56 -937 280 -1080 748 -99 325 -105 844 -14 1181 60 220
185 398 366 518 187 124 412 193 814 248 326 45 409 50 773 54 l207 2 0 -349z"/>
</g>
</svg>
